<?xml version="1.0" encoding="utf-8"?>
<!-- Generator: Adobe Illustrator 24.0.1, SVG Export Plug-In . SVG Version: 6.00 Build 0)  -->
<svg version="1.1" id="Layer_1" xmlns="http://www.w3.org/2000/svg" xmlns:xlink="http://www.w3.org/1999/xlink" x="0px" y="0px"
	 viewBox="0 0 1936 1936" style="enable-background:new 0 0 1936 1936;" xml:space="preserve" >
<style type="text/css">
	.st0{font-family:'AvenirNext-Heavy';}
	.st1{font-size:250.1924px;}
</style>
<g>
	<text transform="matrix(1 0 0 1 460.2295 722.5815)"><tspan x="0" y="0" class="st0 st1">world </tspan><tspan x="0" y="300.2" class="st0 st1">network </tspan><tspan x="0" y="600.5" class="st0 st1">forum </tspan></text>
	<g id="Layer_2_1_">
		<g id="Layer_1-2">
			<path d="M234,1151v17.7h26.6V1151c0-8.6-5.3-14-13.2-14C239.4,1137,234,1142.4,234,1151 M277.5,1150.1v18.7H314v18.9h-97v-37.6
				c0-20,13.8-32,30.2-32S277.5,1130,277.5,1150.1"/>
			<path d="M245.7,1076.1l35.3-11.9v24.1L245.7,1076.1z M217,1084l97,35.3v-19.7l-17.2-5.9v-34.5l17.2-5.7v-19.7l-97,35.4V1084z"/>
			<polygon points="217.1,1021.8 314,1021.8 314,957.9 297.1,957.9 297.1,1002.9 273.6,1002.9 273.6,964.6 256.7,964.6 
				256.7,1002.9 234,1002.9 234,957.9 217.1,957.9 			"/>
			<path d="M314.8,912.7c0,14.7-3.1,25.9-12.8,35.4l-12.3-12.3c6.1-6.1,8.2-14.4,8.2-23.4c0-11.2-4.2-17.2-12-17.2
				c-3.4,0-6.3,0.9-8.2,3c-1.8,1.9-2.7,4.1-3.4,8.6l-1.6,11.7c-1.2,8.3-3.8,14.4-8,18.8c-4.6,4.6-10.9,6.9-19.1,6.9
				c-17.4,0-29.5-12.8-29.5-33.8c0-13.4,3.3-23,11.3-31.3l11.8,12c-5.9,6.1-6.7,13.5-6.7,19.9c0,10.1,5.6,15,12.3,15
				c2.6,0.1,5.2-1,7-2.9c2.1-2.5,3.5-5.7,3.8-9l1.6-11.4c1.2-8.9,3.7-14.4,7.5-18.5c4.9-5.2,12-7.5,20.6-7.5
				C304.2,876.7,314.8,892.4,314.8,912.7"/>
			<path d="M314.8,832.2c0,14.7-3.1,25.9-12.8,35.4l-12.3-12.3c6.1-6.1,8.2-14.4,8.2-23.4c0-11.2-4.2-17.2-12-17.2
				c-3.4,0-6.3,1-8.2,3c-1.8,1.9-2.7,4.1-3.4,8.6l-1.6,11.7c-1.2,8.3-3.8,14.4-8,18.8c-4.6,4.6-10.9,7-19.1,7
				c-17.4,0-29.5-12.8-29.5-33.8c0-13.3,3.3-23,11.3-31.3l11.8,12c-5.9,6.1-6.7,13.5-6.7,19.9c0,10.1,5.6,15,12.3,15
				c2.6,0.1,5.1-1,6.9-2.9c2.1-2.5,3.5-5.7,3.8-9l1.6-11.4c1.2-8.9,3.7-14.4,7.5-18.5c4.9-5.2,12-7.5,20.6-7.5
				C304.2,796.3,314.8,811.9,314.8,832.2"/>
			<polygon points="217.1,778.4 314,778.4 314,715.5 297.1,715.5 297.1,759.5 217.1,759.5 			"/>
			<polygon points="217.1,700.1 314,700.1 314,636.2 297.1,636.2 297.1,681.2 273.6,681.2 273.6,642.9 256.7,642.9 256.7,681.2 
				234,681.2 234,636.2 217.1,636.2 			"/>
			<path d="M234,580.9v17.8h25.6v-17.8c0-8.3-5.3-13.8-12.8-13.8S234,572.6,234,580.9 M314.1,566.2l-38.7,18.9v13.6H314v18.9h-97
				v-38c0-19.7,13.5-31.5,29.7-31.5c13.6,0,22.1,8.3,25.5,17.7l41.8-21.6L314.1,566.2z"/>
			<path d="M252,1277.8c6.8,0,12.3,5.5,12.3,12.3c0,6.8-5.5,12.3-12.3,12.3s-12.3-5.5-12.3-12.3c0,0,0,0,0,0
				C239.7,1283.3,245.2,1277.8,252,1277.8C252,1277.8,252,1277.8,252,1277.8 M252,1269.8c-11.2,0-20.3,9.1-20.3,20.3
				c0,11.2,9.1,20.3,20.3,20.3s20.3-9.1,20.3-20.3c0,0,0,0,0,0C272.3,1278.8,263.2,1269.8,252,1269.8 M306,1236.3v80.8h-15.4
				c14.4-21.7,8.5-51-13.1-65.4c-7.7-5.1-16.8-7.9-26.1-7.9c-9.3-0.1-18.5,2.7-26.2,7.9v-15.5L306,1236.3z M251.4,1251.8
				c21.6,0,39.2,17.5,39.2,39.2c0,9.6-3.6,18.9-10,26.1h-55.4v-55.2C232.4,1255.3,241.7,1251.7,251.4,1251.8 M217,1228.2v96.9H314
				v-96.9H217z"/>
			<polygon points="354.8,1325.1 362.3,1325.1 362.3,1313.8 398,1313.8 398,1305.3 362.3,1305.3 362.3,1294 354.8,1294 			"/>
			<polygon points="354.8,1262.9 372.5,1262.9 372.5,1277.5 354.8,1277.5 354.8,1286 398,1286 398,1277.5 379.9,1277.5 
				379.9,1262.9 398,1262.9 398,1254.5 354.8,1254.5 			"/>
			<polygon points="354.8,1243.2 398,1243.2 398,1214.7 390.5,1214.7 390.5,1234.7 380,1234.7 380,1217.7 372.5,1217.7 
				372.5,1234.7 362.3,1234.7 362.3,1214.7 354.8,1214.7 			"/>
			<polygon points="354.8,1156.9 378.2,1168.1 354.8,1179.4 354.8,1187.8 398,1187.8 398,1179.3 372.8,1179.3 389.2,1171 
				389.2,1165.3 372.8,1157 398,1157 398,1148.6 354.8,1148.6 			"/>
			<path d="M376.4,1115.3c8.3,0,10.3,0.6,12.1,2.1c1.5,1.4,2.4,3.3,2.4,5.4c0,2.1-0.9,4.1-2.4,5.5c-1.8,1.6-3.8,2.1-12.1,2.1
				s-10.3-0.5-12.1-2.1c-1.5-1.4-2.4-3.4-2.3-5.5c-0.1-2.1,0.8-4,2.3-5.4C366.1,1115.8,368.2,1115.3,376.4,1115.3 M376.4,1106.8
				c-8.3,0-13.1,0.1-17.4,4.4c-2.9,2.9-4.6,6.6-4.6,11.5s1.6,8.7,4.6,11.6c4.3,4.3,9.2,4.4,17.4,4.4c8.3,0,13.1-0.1,17.4-4.4
				c2.9-2.9,4.6-6.6,4.6-11.6s-1.6-8.6-4.6-11.5C389.5,1107,384.7,1106.8,376.4,1106.8"/>
			<polygon points="354.8,1072.4 381.3,1072.4 354.8,1089.5 354.8,1097 398,1097 398,1088.6 371.5,1088.6 398,1071.5 398,1063.9 
				354.8,1063.9 			"/>
			<rect x="354.8" y="1044.2" width="43.2" height="8.4"/>
			<polygon points="354.8,1036.1 362.3,1036.1 362.3,1024.8 398,1024.8 398,1016.4 362.3,1016.4 362.3,1005.1 354.8,1005.1 			"/>
			<path d="M376.4,976.2c8.3,0,10.3,0.6,12.1,2.1c1.5,1.4,2.4,3.3,2.4,5.4c0,2.1-0.9,4.1-2.4,5.5c-1.8,1.6-3.8,2.1-12.1,2.1
				s-10.3-0.5-12.1-2.1c-1.5-1.4-2.4-3.4-2.3-5.5c-0.1-2.1,0.8-4,2.3-5.4C366.1,976.8,368.2,976.2,376.4,976.2 M376.4,967.8
				c-8.3,0-13.1,0.1-17.4,4.4c-2.9,2.9-4.6,6.6-4.6,11.5c0,5,1.6,8.7,4.6,11.6c4.3,4.3,9.2,4.4,17.4,4.4c8.3,0,13.1-0.1,17.4-4.4
				c2.9-2.9,4.6-6.6,4.6-11.6c0-5-1.6-8.6-4.6-11.5C389.5,967.9,384.7,967.8,376.4,967.8"/>
			<path d="M368,935.4c3.3,0,5.7,2.4,5.7,6.1v8h-11.4v-8C362.3,937.9,364.7,935.4,368,935.4 M368,927c-7.2,0-13.2,5.2-13.2,14V958
				H398v-8.4h-17.2v-6.1L398,935v-9.8l-18.6,9.7C377.8,930.1,373.2,926.9,368,927"/>
			<rect x="354.8" y="908.6" width="43.2" height="8.4"/>
			<polygon points="354.8,872.7 381.3,872.7 354.8,889.8 354.8,897.3 398,897.3 398,888.9 371.5,888.9 398,871.8 398,864.2 
				354.8,864.2 			"/>
			<path d="M380.3,822.2H374v16.3h7.1v-8h1.6c2.1-0.1,4.2,0.6,5.8,1.9c1.7,1.5,2.5,3.7,2.4,6c0.1,2-0.8,4-2.2,5.4
				c-1.8,1.6-3.9,2.1-12.2,2.1c-8.3,0-10.3-0.5-12.1-2.1c-1.5-1.4-2.4-3.4-2.3-5.4c0-4.3,2.2-6.8,6.3-7.8v-8.5
				c-7.3,1.1-13.8,6.2-13.8,16.3c-0.2,4.3,1.5,8.5,4.6,11.6c4.3,4.3,9.2,4.4,17.4,4.4c8.3,0,13.1-0.1,17.4-4.4c3-3,4.7-7.2,4.6-11.5
				c0-4.6-1.2-8.6-4.9-12.2C390.2,823.1,386.6,822.2,380.3,822.2"/>
			<polygon points="354.8,800.5 398,800.5 398,772.1 390.5,772.1 390.5,792.1 380,792.1 380,775 372.5,775 372.5,792.1 362.3,792.1 
				362.3,772.1 354.8,772.1 			"/>
			<polygon points="354.8,741.8 368.8,749.4 354.8,756.9 354.8,766.5 375.9,753.9 398,767.3 398,757.7 383,749.4 398,741 398,731.3 
				375.9,744.8 354.8,732.2 			"/>
			<path d="M368.3,702.2c3.5,0,5.9,2.4,5.9,6.3v7.9h-11.8v-7.9C362.3,704.6,364.8,702.2,368.3,702.2 M368.3,693.8
				c-7.3,0-13.5,5.3-13.5,14.3v16.7H398v-8.4h-16.3V708C381.8,699,375.6,693.8,368.3,693.8"/>
			<polygon points="354.8,685.8 398,685.8 398,657.3 390.5,657.3 390.5,677.3 380,677.3 380,660.3 372.5,660.3 372.5,677.3 
				362.3,677.3 362.3,657.3 354.8,657.3 			"/>
			<path d="M368,625.3c3.3,0,5.7,2.4,5.7,6.1v8h-11.4v-8C362.3,627.7,364.7,625.3,368,625.3 M368,616.9c-7.2,0-13.2,5.2-13.2,14
				v16.9H398v-8.4h-17.2v-6.1l17.2-8.5v-9.8l-18.6,9.7C377.7,619.9,373.1,616.7,368,616.9"/>
			<polygon points="354.8,611 362.3,611 362.3,599.7 398,599.7 398,591.3 362.3,591.3 362.3,580 354.8,580 			"/>
			<path d="M385.3,544.3c-3.9,0-7,1-9.1,3.3c-1.8,1.9-2.8,4.3-3.4,8.3L372,561c-0.1,1.5-0.7,2.9-1.6,4c-0.8,0.8-1.9,1.3-3.1,1.2
				c-3,0-5.5-2.1-5.5-6.6c0-2.9,0.4-6.2,3-8.9l-5.3-5.3c-3.6,3.7-5,8-5,14c0,9.3,5.4,15.1,13.1,15.1c3.6,0,6.5-1,8.5-3.1
				c1.9-1.9,3-4.6,3.6-8.4l0.8-5.2c0.3-2.2,0.7-3,1.5-3.9c1-0.9,2.3-1.4,3.6-1.3c3.5,0,5.4,2.7,5.4,7.7c0,3.9-0.9,7.6-3.6,10.4
				l5.5,5.5c4.3-4.3,5.7-9.2,5.7-15.8C398.4,551.3,393.7,544.3,385.3,544.3"/>
		</g>
	</g>
</g>
</svg>
